<?xml version="1.0" standalone="no"?>
<!DOCTYPE svg PUBLIC "-//W3C//DTD SVG 20010904//EN"
 "http://www.w3.org/TR/2001/REC-SVG-20010904/DTD/svg10.dtd">
<svg version="1.0" xmlns="http://www.w3.org/2000/svg"
 width="700.000000pt" height="700.000000pt" viewBox="0 0 700.000000 700.000000"
 preserveAspectRatio="xMidYMid meet">
<metadata>
Created by potrace 1.11, written by Peter Selinger 2001-2013
</metadata>
<g transform="translate(0.000000,700.000000) scale(0.100000,-0.100000)"
fill="#000000" stroke="none">
<path d="M1563 5942 c-12 -2 -34 -17 -48 -33 l-25 -31 0 -2366 c0 -2228 1
-2368 18 -2388 9 -12 26 -26 38 -32 15 -8 592 -11 1943 -11 l1922 0 32 29 32
28 0 800 c0 723 -2 802 -16 818 -14 16 -16 49 -17 215 l-1 195 530 530 c292
291 536 542 543 558 26 57 11 75 -335 420 -335 335 -360 355 -412 337 -10 -4
-87 -75 -171 -159 l-153 -153 -1 122 c0 98 3 127 16 148 15 22 17 71 18 456 0
248 -3 442 -9 458 -5 15 -21 36 -35 45 -23 15 -167 17 -1936 17 -1051 0 -1921
-1 -1933 -3z"/>
</g>
</svg>
